<svg width="145" height="113" viewBox="0 0 145 113" fill="none" xmlns="http://www.w3.org/2000/svg">
<path d="M105.873 0C112.394 0.127684 118.212 2.17062 123.327 6.12881C128.441 10.087 132.533 14.8113 135.602 20.3017C138.799 25.7921 141.164 31.6018 142.698 37.7306C144.233 43.8594 145 50.1157 145 56.4999C145 64.927 143.658 73.2267 140.972 81.3984C138.415 89.4423 134.131 96.5925 128.122 102.849C122.24 109.106 114.824 112.489 105.873 113H38.9351C29.9845 112.617 22.5044 109.297 16.4947 103.041C10.485 96.7842 6.2015 89.5702 3.64418 81.3984C1.21473 73.2267 0 64.927 0 56.4999C0 48.0728 1.27866 39.8373 3.83598 31.7932C6.3933 23.6215 10.6129 16.4073 16.4947 10.1508C22.5044 3.76667 29.9845 0.383051 38.9351 0H42.5794H102.229H105.873ZM99.3518 87.3356C104.211 87.0802 108.238 85.2926 111.435 81.9729C114.76 78.5254 117.125 74.5672 118.532 70.0983C119.938 65.6294 120.642 61.0965 120.642 56.4999C120.642 51.9033 119.874 47.4346 118.34 43.0933C116.933 38.6242 114.632 34.6662 111.435 31.2185C108.238 27.7713 104.211 25.9198 99.3518 25.6644H44.881C40.022 25.9198 35.9944 27.7713 32.7975 31.2185C29.6011 34.6662 27.2354 38.6242 25.7011 43.0933C24.2945 47.4346 23.5912 51.9033 23.5912 56.4999C23.5912 61.0965 24.2945 65.6294 25.7011 70.0983C27.1076 74.5672 29.4092 78.5254 32.6058 81.9729C35.9303 85.2926 40.022 87.0802 44.881 87.3356H99.3518Z" fill="#F28482"/>
</svg>
