<svg width="145" height="112" viewBox="0 0 145 112" fill="none" xmlns="http://www.w3.org/2000/svg">
<path d="M57.1455 53.167C53.7474 46.7348 49.4683 40.6183 44.3082 34.817C39.1481 29.0156 34.1769 25.8627 29.3944 25.3583H13.5364C10.0124 25.3583 7.0548 24.0971 4.66353 21.5748C2.14641 19.1786 0.887848 16.2149 0.887848 12.6836C0.887848 9.15236 2.08348 6.18863 4.47475 3.79242C6.99187 1.2701 10.0124 0.00894165 13.5364 0.00894165H29.3944V0.198116H31.282C40.3437 0.70258 49.72 5.81028 59.411 15.5212C64.1935 20.4397 68.5985 25.9889 72.6259 32.1685C76.6533 25.9889 81.121 20.4397 86.0296 15.5212C95.5947 5.81028 104.908 0.70258 113.97 0.198116H115.857V0.00894165H131.715C135.239 0.00894165 138.197 1.2701 140.588 3.79242C143.105 6.18863 144.364 9.15236 144.364 12.6836C144.364 16.2149 143.105 19.1786 140.588 21.5748C138.197 24.0971 135.239 25.3583 131.715 25.3583H115.857C111.075 25.8627 106.104 29.0156 100.943 34.817C95.7834 40.6183 91.5043 46.7348 88.1062 53.167C87.351 54.554 86.5959 55.8784 85.8407 57.1395C86.0925 57.5179 86.3442 57.8962 86.5959 58.2746C89.994 64.8326 94.2731 71.0123 99.4332 76.8136C104.593 82.615 109.565 85.7049 114.347 86.0831H130.205C133.729 86.0831 136.687 87.3442 139.078 89.8665C141.595 92.263 142.854 95.2266 142.854 98.7578C142.854 102.289 141.595 105.316 139.078 107.838C136.687 110.234 133.729 111.433 130.205 111.433H112.459C103.398 110.928 94.0844 105.883 84.5194 96.2987C80.2402 91.8844 76.2757 87.092 72.6259 81.9214C68.976 87.092 65.0115 91.8844 60.7323 96.2987C51.1673 105.883 41.8539 110.928 32.7923 111.433H15.0467C11.5227 111.433 8.50214 110.234 5.98502 107.838C3.59376 105.316 2.39812 102.289 2.39812 98.7578C2.39812 95.2266 3.65668 92.263 6.17381 89.8665C8.56507 87.3442 11.5227 86.0831 15.0467 86.0831H30.9046C35.6872 85.7049 40.6584 82.615 45.8185 76.8136C50.9786 71.0123 55.2577 64.8326 58.6558 58.2746C58.9075 57.8962 59.1592 57.5179 59.411 57.1395C58.6558 55.8784 57.9007 54.554 57.1455 53.167Z" fill="#F6BD60"/>
</svg>
